# xmcd
#
# Track frame offsets:
#	150
#	14113
#	26641
#	39671
#	51721
#	66248
#	80148
#	90777
#	101666
#	113743
#	126983
#	140201
#	154921
#	167318
#	184596
#	199088
#	213013
#
# Disc length: 3072 seconds
#
# Revision: 2
# Processed by: cddbd v1.5.2PL0 Copyright (c) Steve Scherf et al.
# Submitted via: audiograbber 1.83.01
#
DISCID=f20bfe11
DTITLE=Dolly Parton - Legendary [Disc 1]
DYEAR=2000
DGENRE=Country
TTITLE0=Coat Of Many Colours
TTITLE1=In The Good Old Days (When Times Were Bad)
TTITLE2=Higher And Higher
TTITLE3=Touch Your Woman
TTITLE4=We Used To
TTITLE5=My Tennessee Mountain Home
TTITLE6=Love Is Like A Butterfly
TTITLE7=All I Can Do
TTITLE8=Jolene
TTITLE9=I Will Always Love You
TTITLE10=Here You Come again
TTITLE11=It's All Wrong But It's All Right
TTITLE12=Elusive Butterfly
TTITLE13=Real Love (with Kenny Rogers)
TTITLE14=But You Know I Love You
TTITLE15=Just Because I'm A Woman
TTITLE16=One Of Those Days
EXTD=
EXTT0=
EXTT1=
EXTT2=
EXTT3=
EXTT4=
EXTT5=
EXTT6=
EXTT7=
EXTT8=
EXTT9=
EXTT10=
EXTT11=
EXTT12=
EXTT13=
EXTT14=
EXTT15=
EXTT16=
PLAYORDER=
